<?xml version="1.0" encoding="utf-8"?>
<!-- Generator: Adobe Illustrator 19.1.0, SVG Export Plug-In . SVG Version: 6.00 Build 0)  -->
<svg version="1.1" id="Слой_1" xmlns="http://www.w3.org/2000/svg" xmlns:xlink="http://www.w3.org/1999/xlink" x="0px" y="0px"
	 viewBox="0 0 360 176" style="enable-background:new 0 0 360 176;" xml:space="preserve">
<style type="text/css">
	.st0{fill:#731E20;}
</style>
<g>
	<path class="st0" d="M103.9,62.9c-1.6,0.8-2.8,3.4-4.1,5c-1.4,1.7-4.5,4.4-4.1,5c0.4,0.6,3.4-0.8,6.9-0.2c2.5,0.4,4.3,1.2,5.6,1
		c0,0,0.1,0,0.1,0c0.9-0.1,1.3-1.2,1.7-2.3c0.2-0.5,0.3-1.1,0.6-1.5c0.7-1.3,2.3-3,1.8-4.2C111.9,64.5,105.3,62.3,103.9,62.9z"/>
	<path class="st0" d="M76.1,62.9c-1.4-0.7-8,1.5-8.4,2.8c-0.4,1.3,1.2,2.9,1.8,4.2c0.2,0.4,0.4,1,0.6,1.5c0.4,1.1,0.7,2.2,1.7,2.3
		c0,0,0.1,0,0.1,0c1.3,0.1,3.1-0.6,5.6-1c3.5-0.6,6.6,0.8,6.9,0.2c0.4-0.6-2.8-3.4-4.1-5C78.9,66.3,77.7,63.8,76.1,62.9z"/>
	<path class="st0" d="M172.3,34.3c-7.7,8-22.5,6.2-23.8,3c0.2-0.4-0.1-2.2-1.6-2.7c0.5-3.8,2-9.9,1-10.2c-0.5-0.2-8,4.2-9.4,4.7
		c-0.8-0.7-2.2-1-3-0.2c-1.6-0.4-8.6-2.3-12-3.6c-0.1,0-0.3,0.8-0.4,1.1c-1.2,4.1,7.9,10.4,6.9,13.4c-0.4,0.9,0.4,2,1.6,2.3
		c0.1,0,0.1,0,0.2,0c-0.2,0-0.4,0-0.6,0.1c-1.2,1.8-3.4,4.9-6.4,9.1L90,7.5L55.2,51.2c-3-4.2-5.2-7.3-6.4-9.1
		c-0.2,0-0.4-0.1-0.6-0.1c0.1,0,0.1,0,0.2,0c1.2-0.3,2-1.4,1.6-2.3c-0.9-3,8.1-9.3,6.9-13.4c-0.1-0.2-0.3-1.1-0.4-1.1
		c-3.5,1.3-10.4,3.2-12,3.6c-0.8-0.8-2.1-0.5-3,0.2c-1.4-0.5-8.9-4.9-9.4-4.7c-0.9,0.4,0.5,6.4,1,10.2c-1.5,0.5-1.8,2.3-1.6,2.7
		c-1.3,3.2-16.1,5-23.8-3c-7.2,9.5-8.9,41,24.3,45.7c0.1,0,1.7,0.2,1.8,0.2c-2.5-4.8-6.3-27.6,5.1-31.8c0.6,0.3,2,0.1,2.3-0.6
		c0.1-0.1,0.1-0.3,0.2-0.5c0,0.1-0.1,0.3-0.1,0.4c1.8,2.7,4.6,6.4,7.9,10.8l-7.4,9.3l19.2,45.9l10.4-7.1l-4.7,15.4l1.9,3.8
		c-10.2,13.1-18.9,23.8-23.4,28.4c-1,7.4,6.7,14.2,8.7,13.1c2.8-1.4,1.6-7.2,4.3-13c1.5-3.2,6.9-10.9,14.3-20.8L90,168.5l17.5-34.9
		c7.4,9.9,12.9,17.6,14.3,20.8c2.6,5.8,1.5,11.5,4.3,13c2,1,9.7-5.7,8.7-13.1c-4.5-4.6-13.2-15.3-23.4-28.4l1.9-3.8l-4.7-15.4
		l10.4,7.1l19.2-45.9l-7.4-9.3c3.4-4.4,6.1-8.2,7.9-10.8c0-0.1-0.1-0.3-0.1-0.4c0.1,0.2,0.2,0.3,0.2,0.5c0.4,0.7,1.7,0.9,2.3,0.6
		c11.3,4.2,7.6,27.1,5.1,31.8c0.1,0,1.7-0.2,1.8-0.2C181.2,75.3,179.5,43.8,172.3,34.3z M115.6,102.5L102.3,95l-4.1-2.3l1.4,5.8
		l4.4,17.9l1.2,5l-2.8,5.5L90,151.8L77.6,127l-2.8-5.5l1.2-5l4.3-17.9l1.4-5.8L77.7,95l-13.2,7.4L50.5,69.1l3.5-4.4l5.8-7.2L90,19.5
		l30.2,37.9l5.8,7.2l3.5,4.4L115.6,102.5z"/>
</g>
<g>
	<path class="st0" d="M141,110.9h0.8l1.3-1.3l1-15.3l-0.7-1.7h13.9l-0.7,1.7v16.6h1.8v8h-5.6v-3h-6.3v3H141V110.9z M147.5,110.9h3.6
		V97.6h-1.5l-0.8,11.9L147.5,110.9z"/>
	<path class="st0" d="M170,106.9h-3v4h5.3l1.7-0.7v5.6h-13.3l0.7-1.7V94.3l-0.7-1.7h12.9v5.6l-1.7-0.7h-5v4.3h3l1.7-0.7v6.3
		L170,106.9z"/>
	<path class="st0" d="M190.6,114.2v-10h-0.2l-2.2,7h-3.2l-2.2-7h-0.2v10l0.7,1.7h-7l0.7-1.7V94.3l-0.7-1.7h7l3.2,10h0.2l3.2-10h7
		l-0.7,1.7v19.9l0.7,1.7h-7L190.6,114.2z"/>
	<path class="st0" d="M200.1,96.1l3.8-3.8h7l3.8,3.8v16.3l-3.8,3.8h-7l-3.8-3.8V96.1z M209,110.7V97.8l-0.5-0.5h-2.3l-0.5,0.5v12.9
		l0.5,0.5h2.3L209,110.7z"/>
	<path class="st0" d="M218.5,114.2V94.3l-0.7-1.7h7l-0.7,1.7v7.3h0.7l1.7-7.3l-0.3-1.7h7l-0.8,1.7l-2.7,9.8l3,10.1l0.8,1.7h-7
		l0.3-1.7l-2-7.6h-0.7v7.6l0.7,1.7h-7L218.5,114.2z"/>
	<path class="st0" d="M235.9,114.2V94.3l-0.7-1.7h10.9l3.8,3.8v9.6l-3.8,3.8h-4.6v4.3l0.7,1.7h-7L235.9,114.2z M241.5,97.6v7.3h2.3
		l0.5-0.5v-6.3l-0.5-0.5H241.5z"/>
	<path class="st0" d="M257.3,115.9h-7l0.8-1.7l4-19.9l-0.8-1.7h8.6l4.3,21.6l0.8,1.7h-7l0.3-1.7l-0.5-2.8h-3.5l-0.5,2.8L257.3,115.9
		z M259.1,100l-1,6.5h2.2l-1-6.5H259.1z"/>
	<path class="st0" d="M277.5,115.9h-7l0.7-1.7V97.6h-2.5l-1.7,0.7v-5.6H281v5.6l-1.7-0.7h-2.5v16.6L277.5,115.9z"/>
	<path class="st0" d="M282.8,92.7h7l-0.7,1.7v8h0.2l3.3-9.6h5.6l-0.7,1.7v19.9l0.7,1.7h-7l0.7-1.7v-8h-0.2l-3.3,9.6h-5.6l0.7-1.7
		V94.3L282.8,92.7z"/>
	<path class="st0" d="M307.2,103.3l0.5,0.5h2v-9.5l-0.7-1.7h7l-0.7,1.7v19.9l0.7,1.7h-7l0.7-1.7v-5.5h-4.3l-3.8-3.8V94.3l-0.7-1.7h7
		l-0.7,1.7V103.3z"/>
	<path class="st0" d="M326,115.9h-7l0.7-1.7V94.3l-0.7-1.7h7l-0.7,1.7v7.6h2.8v-7.6l-0.7-1.7h7l-0.7,1.7v19.9l0.7,1.7h-7l0.7-1.7
		v-7.3h-2.8v7.3L326,115.9z"/>
	<path class="st0" d="M342.6,115.9h-7l0.8-1.7l4-19.9l-0.8-1.7h8.6l4.3,21.6l0.8,1.7h-7l0.3-1.7l-0.5-2.8h-3.5l-0.5,2.8L342.6,115.9
		z M344.4,100l-1,6.5h2.2l-1-6.5H344.4z"/>
</g>
<g>
	<path class="st0" d="M152,130.2h-5.1l-0.5,0.5v11.8l0.5,0.5h5.1l1.6-0.6v5.4h-8.9l-3.7-3.7v-15l3.7-3.7h8.9v5.4L152,130.2z"/>
	<path class="st0" d="M156.1,128.8l3.7-3.7h6.7l3.7,3.7v15.6l-3.7,3.7h-6.7l-3.7-3.7V128.8z M164.7,142.8v-12.4l-0.5-0.5H162
		l-0.5,0.5v12.4l0.5,0.5h2.2L164.7,142.8z"/>
	<path class="st0" d="M173.8,146.1V127l-0.6-1.6h6.7l-0.6,1.6v7h0.6l1.6-7l-0.3-1.6h6.7L187,127l-2.5,9.4l2.9,9.7l0.8,1.6h-6.7
		l0.3-1.6l-1.9-7.3h-0.6v7.3l0.6,1.6h-6.7L173.8,146.1z"/>
	<path class="st0" d="M189.9,125.4h6.7l-0.6,1.6v7.6h0.2l3.2-9.2h5.4L204,127v19.1l0.6,1.6H198l0.6-1.6v-7.6h-0.2l-3.2,9.2h-5.4
		l0.6-1.6V127L189.9,125.4z"/>
	<path class="st0" d="M208.2,146.1V127l-0.6-1.6H218l3.7,3.7v9.2L218,142h-4.5v4.1l0.6,1.6h-6.7L208.2,146.1z M213.6,130.2v7h2.2
		l0.5-0.5v-6l-0.5-0.5H213.6z"/>
	<path class="st0" d="M228.7,147.7H222l0.8-1.6l3.8-19.1l-0.8-1.6h8.3l4.1,20.7l0.8,1.6h-6.7l0.3-1.6l-0.5-2.7h-3.3l-0.5,2.7
		L228.7,147.7z M230.5,132.4l-1,6.2h2.1l-1-6.2H230.5z"/>
</g>
</svg>
